HIERARCHY
ROOT Pelvis
{
	OFFSET 0.000000 0.000000 0.000000
	CHANNELS 6 Xposition Yposition Zposition Xrotation Yrotation Zrotation
	JOINT LeftUpLeg_virtual
	{
		OFFSET 0.000000 0.000000 0.000000
		CHANNELS 3 Xrotation Yrotation Zrotation
		JOINT LeftUpLeg
		{
			OFFSET 18.735201 -5.666702 -4.541200
			CHANNELS 3 Xrotation Yrotation Zrotation
			JOINT LeftLeg
			{
				OFFSET -0.021200 -31.938179 0.493100
				CHANNELS 3 Xrotation Yrotation Zrotation
				JOINT LeftFoot
				{
					OFFSET 0.021200 -31.938179 -4.336299
					CHANNELS 3 Xrotation Yrotation Zrotation
					JOINT LeftToeBase
					{
						OFFSET 0.943001 -26.722000 15.023500
						CHANNELS 3 Xrotation Yrotation Zrotation
						End Site
						{
							OFFSET 0 0 0
						}
					}
				}
			}
		}
	}
	JOINT RightUpLeg_virtual
	{
		OFFSET 0.000000 0.000000 0.000000
		CHANNELS 3 Xrotation Yrotation Zrotation
		JOINT RightUpLeg
		{
			OFFSET -18.735201 -5.666702 -4.541200
			CHANNELS 3 Xrotation Yrotation Zrotation
			JOINT RightLeg
			{
				OFFSET 0.018946 -31.938133 0.493100
				CHANNELS 3 Xrotation Yrotation Zrotation
				JOINT RightFoot
				{
					OFFSET -0.018946 -31.938126 -4.336299
					CHANNELS 3 Xrotation Yrotation Zrotation
					JOINT RightToeBase
					{
						OFFSET -0.943001 -26.722004 15.023500
						CHANNELS 3 Xrotation Yrotation Zrotation
						End Site
						{
							OFFSET 0 0 0
						}
					}
				}
			}
		}
	}
	JOINT Hips_virtual
	{
		OFFSET 0.000000 0.000000 0.000000
		CHANNELS 3 Xrotation Yrotation Zrotation
		JOINT Hips
		{
			OFFSET -0.000000 -0.000000 -0.000000
			CHANNELS 3 Xrotation Yrotation Zrotation
			JOINT Spine
			{
				OFFSET 0.000000 10.199997 -0.299500
				CHANNELS 3 Xrotation Yrotation Zrotation
				JOINT Spine1
				{
					OFFSET 0.000000 11.900002 -1.516600
					CHANNELS 3 Xrotation Yrotation Zrotation
					JOINT Spine2
					{
						OFFSET 0.000000 13.600006 -2.842500
						CHANNELS 3 Xrotation Yrotation Zrotation
						JOINT Neck_virtual
						{
							OFFSET 0.000000 0.000000 0.000000
							CHANNELS 3 Xrotation Yrotation Zrotation
							JOINT Neck
							{
								OFFSET 0.000000 9.624100 -2.890100
								CHANNELS 3 Xrotation Yrotation Zrotation
								JOINT Head
								{
									OFFSET 0.000000 14.068802 -1.351900
									CHANNELS 3 Xrotation Yrotation Zrotation
									End Site
									{
										OFFSET 0 0 0
									}
								}
							}
						}
						JOINT LeftShoulder_virtual
						{
							OFFSET 0.000000 0.000000 0.000000
							CHANNELS 3 Xrotation Yrotation Zrotation
							JOINT LeftShoulder
							{
								OFFSET 15.263000 10.923401 -0.547700
								CHANNELS 3 Xrotation Yrotation Zrotation
								JOINT LeftArm
								{
									OFFSET 25.438599 -2.830597 -13.032500
									CHANNELS 3 Xrotation Yrotation Zrotation
									JOINT LeftForeArm
									{
										OFFSET 29.960503 0.000000 0.000000
										CHANNELS 3 Xrotation Yrotation Zrotation
										JOINT LeftHand
										{
											OFFSET 27.849251 0.000000 0.000000
											CHANNELS 3 Xrotation Yrotation Zrotation
											End Site
											{
												OFFSET 0 0 0
											}
										}
									}
								}
							}
						}
						JOINT RightShoulder_virtual
						{
							OFFSET 0.000000 0.000000 0.000000
							CHANNELS 3 Xrotation Yrotation Zrotation
							JOINT RightShoulder
							{
								OFFSET -15.263000 10.923401 -0.547700
								CHANNELS 3 Xrotation Yrotation Zrotation
								JOINT RightArm
								{
									OFFSET -25.438599 -2.830597 -13.032500
									CHANNELS 3 Xrotation Yrotation Zrotation
									JOINT RightForeArm
									{
										OFFSET -29.960503 0.000000 0.000000
										CHANNELS 3 Xrotation Yrotation Zrotation
										JOINT RightHand
										{
											OFFSET -27.849251 0.000000 0.000000
											CHANNELS 3 Xrotation Yrotation Zrotation
											End Site
											{
												OFFSET 0 0 0
											}
										}
									}
								}
							}
						}
					}
				}
			}
		}
	}
}
MOTION
Frames: 10
Frame Time: 0.03333333
6.911315 86.925652 5.052658 0.000000 0.000000 0.000000 7.680641 -12.395409 -1.253718 -39.842211 5.021164 14.462529 56.094240 9.374143 -0.825148 -21.818896 5.038723 -9.709173 0.000000 0.000000 0.000000 7.680641 -12.395409 -1.253718 -26.563401 -6.778463 -15.678165 50.734413 -7.315937 -3.857938 -15.367751 -1.736043 14.217023 0.000000 0.000000 0.000000 7.680641 -12.395409 -1.253718 0.000001 0.000000 0.000000 12.202913 3.283039 -0.929114 8.547020 6.722059 -1.512190 0.000000 0.000000 0.000000 -3.408233 6.901168 -0.063846 -0.222082 -0.748961 0.442194 0.000000 0.000000 0.000000 -3.408233 6.901168 -0.063846 -1.721886 -5.625957 -0.861950 -9.809323 -3.483230 -61.749650 -12.683613 -28.217830 -4.423306 0.000000 0.000000 0.000000 -3.408233 6.901168 -0.063846 5.552880 -18.831827 2.973357 39.568263 52.456584 11.456162 15.406281 28.844336 12.492150 0.000000 0.000000 0.000000 
7.032995 87.578766 4.819454 0.000000 0.000000 0.000000 7.718719 -12.652016 -1.569343 -39.304447 5.544218 14.609440 54.232467 9.242832 -0.483541 -20.792597 5.049268 -9.433675 0.000000 0.000000 0.000000 7.718719 -12.652016 -1.569343 -24.595726 -7.312816 -14.894081 45.405212 -6.332986 -3.515986 -16.689876 -0.757955 15.004595 0.000000 0.000000 0.000000 7.718719 -12.652016 -1.569343 0.000000 -0.000001 0.000000 12.070664 3.224848 -0.842079 8.235414 6.693141 -1.358526 0.000000 0.000000 0.000000 -3.710611 6.857831 0.094730 -0.297622 -0.650116 0.272899 0.000000 0.000000 0.000000 -3.710611 6.857831 0.094730 -1.716034 -4.454584 -0.893410 -9.717388 -3.541836 -62.272276 -11.923617 -27.096120 -3.494368 0.000000 0.000000 0.000000 -3.710611 6.857831 0.094730 5.099001 -17.776583 2.830945 31.146827 51.316878 16.165635 17.702664 22.785036 11.882983 0.000000 0.000000 0.000000 
7.159497 88.089539 4.483627 0.000000 0.000000 0.000000 7.744115 -12.913877 -1.844648 -38.921256 5.535345 14.698045 52.827408 9.587961 -0.444962 -19.840958 4.951596 -9.306838 0.000000 0.000000 0.000000 7.744115 -12.913877 -1.844648 -22.993014 -7.890910 -14.181609 40.100713 -5.704471 -3.430209 -17.178230 0.273316 15.631060 0.000000 0.000000 0.000000 7.744115 -12.913877 -1.844648 0.000000 0.000001 0.000000 11.934880 3.167216 -0.765846 7.915924 6.670848 -1.209775 0.000000 0.000000 0.000000 -4.021068 6.836050 0.250615 -0.369337 -0.569959 0.071138 0.000000 0.000000 0.000000 -4.021068 6.836050 0.250615 -1.693606 -3.827968 -1.241115 -9.593848 -3.482807 -62.534992 -11.037044 -26.271928 -2.727148 0.000000 0.000000 0.000000 -4.021068 6.836050 0.250615 4.610793 -16.271288 2.746253 24.194386 47.069169 21.401093 20.960203 21.627932 10.737942 0.000000 0.000000 0.000000 
7.263000 88.461617 4.251175 0.000000 0.000000 0.000000 7.718637 -12.980017 -2.109127 -38.674717 5.560839 14.891465 51.845067 9.568176 -0.536688 -19.173224 4.863397 -9.040829 0.000000 0.000000 0.000000 7.718637 -12.980017 -2.109127 -21.756388 -8.541231 -13.460886 35.477044 -3.310333 -3.521741 -16.884253 -0.703448 15.475911 0.000000 0.000000 0.000000 7.718637 -12.980017 -2.109127 0.000000 0.000000 0.000000 11.800032 3.104649 -0.692434 7.597625 6.639437 -1.064227 0.000000 0.000000 0.000000 -4.329975 6.793162 0.400624 -0.417845 -0.494949 -0.089826 0.000000 0.000000 0.000000 -4.329975 6.793162 0.400624 -1.684020 -3.655045 -1.369009 -9.364245 -3.313603 -62.863265 -10.281036 -25.321796 -1.958483 0.000000 0.000000 0.000000 -4.329975 6.793162 0.400624 4.022896 -14.699896 2.630175 18.984063 43.625491 27.206242 21.850417 20.601129 9.208949 0.000000 0.000000 0.000000 
7.274371 88.812851 4.137508 0.000000 0.000000 0.000000 7.310599 -12.808939 -2.342747 -38.023520 5.880556 15.140293 50.839635 9.039050 -0.646998 -18.613802 4.785019 -8.645677 0.000000 0.000000 0.000000 7.310599 -12.808939 -2.342747 -20.595609 -8.454340 -12.660223 31.979024 -1.626361 -3.818896 -15.951902 -2.044950 15.447151 0.000000 0.000000 0.000000 7.310599 -12.808939 -2.342747 0.000000 0.000000 0.000000 11.685847 2.994460 -0.613463 7.324738 6.494892 -0.931728 0.000000 0.000000 0.000000 -4.590986 6.645016 0.513621 -0.466893 -0.431634 -0.209421 0.000000 0.000000 0.000000 -4.590986 6.645016 0.513621 -1.686316 -3.491241 -1.306876 -9.128475 -3.161147 -63.281511 -9.621723 -24.665331 -1.360176 0.000000 0.000000 0.000000 -4.590986 6.645016 0.513621 3.436037 -12.677612 2.720370 14.843985 39.461087 33.241219 22.083629 20.411407 7.131021 0.000000 0.000000 0.000000 
7.178924 89.242073 4.149090 0.000000 0.000000 0.000000 6.518316 -12.277968 -2.655353 -36.845370 6.211452 15.329786 49.545287 8.138310 -0.662161 -17.958719 4.803674 -8.236167 0.000000 0.000000 0.000000 6.518316 -12.277968 -2.655353 -19.223412 -7.878411 -12.046769 29.524039 -2.844241 -3.910495 -15.246125 -1.541255 16.067159 0.000000 0.000000 0.000000 6.518316 -12.277968 -2.655353 -0.000001 0.000000 0.000000 11.606698 2.853443 -0.502357 7.121366 6.275669 -0.751659 0.000000 0.000000 0.000000 -4.781017 6.413115 0.656970 -0.464960 -0.393291 -0.310056 0.000000 0.000000 0.000000 -4.781017 6.413115 0.656970 -1.683975 -3.311989 -1.311699 -9.066525 -3.203672 -63.661816 -8.896719 -23.916140 -0.825317 0.000000 0.000000 0.000000 -4.781017 6.413115 0.656970 2.823415 -10.771069 2.883931 11.686291 34.989891 39.226295 20.903464 20.431830 5.441423 0.000000 0.000000 0.000000 
6.986581 89.578583 4.255733 0.000000 0.000000 0.000000 5.835752 -11.584034 -2.743898 -35.668003 6.373298 15.120169 48.246882 7.400391 -0.436262 -17.293296 4.958353 -8.095618 0.000000 0.000000 0.000000 5.835752 -11.584034 -2.743898 -17.675908 -6.815850 -11.435782 27.879796 -4.371784 -4.582115 -15.828825 -2.086979 17.977726 0.000000 0.000000 0.000000 5.835752 -11.584034 -2.743898 0.000000 0.000000 0.000000 11.502241 2.710690 -0.404926 6.871400 6.046717 -0.607234 0.000000 0.000000 0.000000 -5.017915 6.177901 0.762653 -0.446695 -0.388504 -0.430967 0.000000 0.000000 0.000000 -5.017915 6.177901 0.762653 -1.665089 -3.105136 -1.529662 -9.143970 -3.384156 -63.951170 -8.306459 -23.428119 -0.465753 0.000000 0.000000 0.000000 -5.017915 6.177901 0.762653 2.183737 -8.911538 3.004668 9.669411 30.271569 44.918664 18.140935 20.668644 4.430772 0.000000 0.000000 0.000000 
6.609641 89.815834 4.453655 0.000000 0.000000 0.000000 5.013299 -11.138018 -2.716165 -34.209170 6.503497 14.875645 47.164201 6.897516 -0.038346 -16.844129 5.268146 -8.363702 0.000000 0.000000 0.000000 5.013299 -11.138018 -2.716165 -16.565881 -5.826301 -10.839765 27.227823 -4.413621 -5.140371 -15.882949 -3.586294 19.053936 0.000000 0.000000 0.000000 5.013299 -11.138018 -2.716165 0.000000 -0.000001 0.000000 11.416117 2.629974 -0.329952 6.662428 5.930124 -0.510393 0.000000 0.000000 0.000000 -5.216855 6.061060 0.844169 -0.431601 -0.405510 -0.573013 0.000000 0.000000 0.000000 -5.216855 6.061060 0.844169 -1.626238 -2.900657 -1.982236 -9.221896 -3.555624 -64.215608 -7.940961 -23.082249 -0.206241 0.000000 0.000000 0.000000 -5.216855 6.061060 0.844169 1.514003 -7.244173 3.121622 8.638244 25.595273 50.012421 15.308636 21.394442 3.395839 0.000000 0.000000 0.000000 
6.209255 90.155724 4.708698 0.000000 0.000000 0.000000 4.292696 -11.024624 -2.490436 -32.341014 6.895724 14.580167 45.478285 6.297148 0.175254 -16.263174 5.818736 -8.513804 0.000000 0.000000 0.000000 4.292696 -11.024624 -2.490436 -15.808224 -5.295555 -10.347866 26.749691 -5.500461 -5.539015 -14.732018 -3.487648 18.987615 0.000000 0.000000 0.000000 4.292696 -11.024624 -2.490436 0.000000 0.000000 0.000000 11.297971 2.581813 -0.290787 6.401185 5.854619 -0.550668 0.000000 0.000000 0.000000 -5.469414 6.010990 0.798894 -0.377777 -0.416381 -0.694849 0.000000 0.000000 0.000000 -5.469414 6.010990 0.798894 -1.603647 -2.502510 -2.189663 -9.175681 -3.656382 -64.764496 -7.733302 -22.858135 -0.055189 0.000000 0.000000 0.000000 -5.469414 6.010990 0.798894 0.882252 -5.515089 3.366801 8.325341 20.822943 54.564308 12.793259 22.200248 2.392408 0.000000 0.000000 0.000000 
5.815431 90.485191 4.873451 0.000000 0.000000 0.000000 3.804043 -10.869220 -2.189638 -30.770658 7.338885 14.368524 43.664033 5.904479 0.237336 -15.497141 5.957103 -8.637351 0.000000 0.000000 0.000000 3.804043 -10.869220 -2.189638 -14.979638 -5.880078 -10.872396 25.615520 -5.371900 -5.048737 -13.082302 -2.771204 18.526461 0.000000 0.000000 0.000000 3.804043 -10.869220 -2.189638 0.000000 0.000000 0.000000 11.133277 2.520038 -0.259447 6.049151 5.756721 -0.590840 0.000000 0.000000 0.000000 -5.812799 5.937217 0.747832 -0.323940 -0.430178 -0.805302 0.000000 0.000000 0.000000 -5.812799 5.937217 0.747832 -1.581684 -2.228634 -2.402151 -8.976540 -3.562174 -65.265326 -7.577427 -22.751714 0.013627 0.000000 0.000000 0.000000 -5.812799 5.937217 0.747832 0.287396 -3.809689 3.493065 8.365681 16.000669 58.734047 10.317572 22.742366 1.637578 0.000000 0.000000 0.000000 
